<svg xmlns="http://www.w3.org/2000/svg" viewBox="0 0 64 64" width="64" height="64" role="img" aria-label="cartable-ouvert">
  <defs>
    <linearGradient id="cuir" x1=".1" y1="0" x2=".9" y2="1">
      <stop offset="0" stop-color="#b87d42"/><stop offset=".45" stop-color="#96622f"/>
      <stop offset="1" stop-color="#5f3c1b"/></linearGradient>
    <linearGradient id="cuirSombre" x1=".1" y1="0" x2=".9" y2="1">
      <stop offset="0" stop-color="#7d5531"/><stop offset="1" stop-color="#3b2412"/></linearGradient>
    <linearGradient id="laiton" x1="0" y1="0" x2="1" y2="1">
      <stop offset="0" stop-color="#e6cb78"/><stop offset=".45" stop-color="#b9932f"/>
      <stop offset="1" stop-color="#7d5f15"/></linearGradient>
    <linearGradient id="papier" x1=".2" y1="0" x2=".8" y2="1">
      <stop offset="0" stop-color="#f4ecd8"/><stop offset=".6" stop-color="#e2d5b8"/>
      <stop offset="1" stop-color="#c3b493"/></linearGradient>
  </defs>
  
  <path d="M11 22h42a3 3 0 0 1 3 3v25a4 4 0 0 1-4 4H12a4 4 0 0 1-4-4V25a3 3 0 0 1 3-3z" fill="url(#cuirSombre)"/>
  <path d="M12 24h40v10a3 3 0 0 1-3 3H15a3 3 0 0 1-3-3z" fill="#0a0806"/>
  <path d="M16 25h9v11h-9zM27 23h8v13h-8zM37 26h10v10H37z" fill="url(#papier)" opacity=".78"/>
  <path d="M27 23h8v3h-8z" fill="#8b3f3a" opacity=".8"/>
  <path d="M8 34h48v6H8z" fill="url(#cuir)"/>
  <path d="M10 35h44" fill="none" stroke="#fff" stroke-opacity=".2" stroke-width=".9"/>
  <path d="M8 40h48l-3 12a3 3 0 0 1-3 2H14a3 3 0 0 1-3-2z" fill="url(#cuir)"/>
  <path d="M9 40h46" fill="none" stroke="#000" stroke-opacity=".34" stroke-width="1"/>
  <rect x="18" y="44" width="5" height="9" rx="1" fill="url(#cuirSombre)"/>
  <rect x="41" y="44" width="5" height="9" rx="1" fill="url(#cuirSombre)"/>
  <rect x="18.5" y="46" width="4" height="3" rx="1" fill="url(#laiton)"/>
  <rect x="41.5" y="46" width="4" height="3" rx="1" fill="url(#laiton)"/>
  
</svg>
