<svg xmlns="http://www.w3.org/2000/svg" viewBox="0 0 64 64" width="64" height="64" role="img" aria-label="gourde">
  <defs>
    <linearGradient id="laiton" x1="0" y1="0" x2="1" y2="1">
      <stop offset="0" stop-color="#e6cb78"/><stop offset=".45" stop-color="#b9932f"/>
      <stop offset="1" stop-color="#7d5f15"/></linearGradient>
    <linearGradient id="acier" x1="0" y1="0" x2="1" y2="1">
      <stop offset="0" stop-color="#e2e7ec"/><stop offset=".5" stop-color="#a5aeb7"/>
      <stop offset="1" stop-color="#6d767f"/></linearGradient>
    <linearGradient id="feutrine" x1="0" y1="0" x2="1" y2="1">
      <stop offset="0" stop-color="#6a6152"/><stop offset="1" stop-color="#3c362c"/></linearGradient>
  </defs>
  
  <path d="M25 18h14v5c6 2 8 7 8 14s-2 13-8 15H25c-6-2-8-8-8-15s2-12 8-14z" fill="url(#feutrine)"/>
  <path d="M25 23h14c5 2 6 6 6 14s-1 12-6 14H25c-5-2-6-7-6-14s1-12 6-14z" fill="#6a6152" opacity=".5"/>
  <rect x="26" y="12" width="12" height="7" rx="2" fill="url(#acier)"/>
  <rect x="27" y="10" width="10" height="3" rx="1.5" fill="url(#laiton)"/>
  <path d="M19 33h26" stroke="#000" stroke-opacity=".22" stroke-width="1.2"/>
  <path d="M23 24v22" fill="none" stroke="#fff" stroke-opacity=".18" stroke-width=".9"/>
  <ellipse cx="32" cy="53" rx="15" ry="2.2" fill="#000" opacity=".3"/>
  
</svg>
