<svg xmlns="http://www.w3.org/2000/svg" viewBox="0 0 64 64" width="64" height="64" role="img" aria-label="buvard">
  <defs>
    <linearGradient id="plaque" x1="0" y1="0" x2="1" y2="1">
      <stop offset="0" stop-color="#151b21"/><stop offset="1" stop-color="#0a0d10"/></linearGradient>
    <radialGradient id="lum" cx="30%" cy="16%" r="78%">
      <stop offset="0" stop-color="#ffffff" stop-opacity=".085"/>
      <stop offset="1" stop-color="#ffffff" stop-opacity="0"/></radialGradient>
    <radialGradient id="sol" cx="50%" cy="50%" r="50%">
      <stop offset="0" stop-color="#000" stop-opacity=".55"/>
      <stop offset="1" stop-color="#000" stop-opacity="0"/></radialGradient>
    <linearGradient id="cuirSombre" x1=".1" y1="0" x2=".9" y2="1">
      <stop offset="0" stop-color="#7d5531"/><stop offset="1" stop-color="#3b2412"/></linearGradient>
    <linearGradient id="bois" x1="0" y1="0" x2="1" y2="1">
      <stop offset="0" stop-color="#e0c68d"/><stop offset=".55" stop-color="#bd9d5f"/>
      <stop offset="1" stop-color="#8a6c3a"/></linearGradient>
  </defs>
  <rect width="64" height="64" rx="10" fill="url(#plaque)"/>
  <ellipse cx="32" cy="52" rx="22" ry="5" fill="url(#sol)"/>
  <path d="M10 34h44l-3 12H13z" fill="url(#cuirSombre)"/>
  <path d="M12 30h40l2 5H10z" fill="#8b3f3a"/>
  <path d="M14 26h36l2 5H12z" fill="#a5544c" opacity=".9"/>
  <rect x="26" y="18" width="12" height="9" rx="2" fill="url(#bois)"/>
  <path d="M16 28h32" fill="none" stroke="#fff" stroke-opacity=".2" stroke-width=".9"/>
  <ellipse cx="32" cy="47" rx="20" ry="2.4" fill="#000" opacity=".3"/>
  <rect width="64" height="64" rx="10" fill="url(#lum)"/>
  <rect x=".5" y=".5" width="63" height="63" rx="9.5" fill="none" stroke="#fff" stroke-opacity=".05"/>
</svg>
