<svg xmlns="http://www.w3.org/2000/svg" viewBox="0 0 64 64" width="64" height="64" role="img" aria-label="craie">
  <defs>
    <linearGradient id="plaque" x1="0" y1="0" x2="1" y2="1">
      <stop offset="0" stop-color="#151b21"/><stop offset="1" stop-color="#0a0d10"/></linearGradient>
    <radialGradient id="lum" cx="30%" cy="16%" r="78%">
      <stop offset="0" stop-color="#ffffff" stop-opacity=".085"/>
      <stop offset="1" stop-color="#ffffff" stop-opacity="0"/></radialGradient>
    <radialGradient id="sol" cx="50%" cy="50%" r="50%">
      <stop offset="0" stop-color="#000" stop-opacity=".55"/>
      <stop offset="1" stop-color="#000" stop-opacity="0"/></radialGradient>
    <linearGradient id="craieBlanc" x1="0" y1="0" x2="1" y2="1">
      <stop offset="0" stop-color="#f6f3ea"/><stop offset="1" stop-color="#c8c2b2"/></linearGradient>
  </defs>
  <rect width="64" height="64" rx="10" fill="url(#plaque)"/>
  <ellipse cx="32" cy="52" rx="22" ry="5" fill="url(#sol)"/>
  <rect x="14" y="28" width="26" height="8" rx="2" fill="url(#craieBlanc)" transform="rotate(-12 27 32)"/>
  <rect x="14" y="28" width="26" height="3" rx="1.5" fill="#fff" opacity=".35" transform="rotate(-12 27 32)"/>
  <rect x="34" y="34" width="18" height="7" rx="2" fill="url(#craieBlanc)" opacity=".85" transform="rotate(8 43 37)"/>
  <ellipse cx="20" cy="46" rx="14" ry="2.6" fill="#e8e3d6" opacity=".14"/>
  <ellipse cx="30" cy="50" rx="18" ry="2.4" fill="#000" opacity=".28"/>
  <rect width="64" height="64" rx="10" fill="url(#lum)"/>
  <rect x=".5" y=".5" width="63" height="63" rx="9.5" fill="none" stroke="#fff" stroke-opacity=".05"/>
</svg>
