<svg xmlns="http://www.w3.org/2000/svg" viewBox="0 0 64 64" width="64" height="64" role="img" aria-label="lanterne">
  <defs>
    <linearGradient id="plaque" x1="0" y1="0" x2="1" y2="1">
      <stop offset="0" stop-color="#151b21"/><stop offset="1" stop-color="#0a0d10"/></linearGradient>
    <radialGradient id="lum" cx="30%" cy="16%" r="78%">
      <stop offset="0" stop-color="#ffffff" stop-opacity=".085"/>
      <stop offset="1" stop-color="#ffffff" stop-opacity="0"/></radialGradient>
    <radialGradient id="sol" cx="50%" cy="50%" r="50%">
      <stop offset="0" stop-color="#000" stop-opacity=".55"/>
      <stop offset="1" stop-color="#000" stop-opacity="0"/></radialGradient>
    <linearGradient id="laiton" x1="0" y1="0" x2="1" y2="1">
      <stop offset="0" stop-color="#e6cb78"/><stop offset=".45" stop-color="#b9932f"/>
      <stop offset="1" stop-color="#7d5f15"/></linearGradient>
    <linearGradient id="verre" x1="0" y1="0" x2="1" y2="1">
      <stop offset="0" stop-color="#d7e8ee" stop-opacity=".9"/>
      <stop offset="1" stop-color="#5d7f8b" stop-opacity=".8"/></linearGradient>
  </defs>
  <rect width="64" height="64" rx="10" fill="url(#plaque)"/>
  <ellipse cx="32" cy="52" rx="22" ry="5" fill="url(#sol)"/>
  <rect x="29" y="9" width="6" height="4" rx="2" fill="url(#laiton)"/>
  <path d="M24 13h16l-2 5H26z" fill="url(#laiton)"/>
  <path d="M22 18h20v22a4 4 0 0 1-4 4H26a4 4 0 0 1-4-4z" fill="url(#verre)" opacity=".5"/>
  <rect x="20" y="16" width="24" height="3" rx="1.5" fill="url(#laiton)"/>
  <rect x="20" y="43" width="24" height="6" rx="2" fill="url(#laiton)"/>
  <path d="M27 30h10v12H27z" fill="#e0b25a" opacity=".45"/>
  <path d="M32 26c2 3 3 4 3 6a3 3 0 0 1-6 0c0-2 1-3 3-6z" fill="#f2c97a"/>
  <path d="M22 18h3v26h-3zM39 18h3v26h-3z" fill="url(#laiton)" opacity=".7"/>
  <path d="M23 20v22" fill="none" stroke="#fff" stroke-opacity=".2" stroke-width=".9"/>
  <rect width="64" height="64" rx="10" fill="url(#lum)"/>
  <rect x=".5" y=".5" width="63" height="63" rx="9.5" fill="none" stroke="#fff" stroke-opacity=".05"/>
</svg>
